<?xml version="1.0" standalone="no"?>
<!DOCTYPE svg PUBLIC "-//W3C//DTD SVG 20010904//EN"
 "http://www.w3.org/TR/2001/REC-SVG-20010904/DTD/svg10.dtd">
<svg version="1.0" xmlns="http://www.w3.org/2000/svg"
 width="576.000000pt" height="576.000000pt" viewBox="0 0 576.000000 576.000000"
 preserveAspectRatio="xMidYMid meet">
<metadata>
Created by potrace 1.11, written by Peter Selinger 2001-2013
</metadata>
<g transform="translate(0.000000,576.000000) scale(0.100000,-0.100000)"
fill="#000000" stroke="none">
<path d="M2928 5434 c-2 -2 -20 -5 -38 -8 -51 -6 -160 -35 -197 -52 -92 -41
-113 -51 -178 -92 -61 -39 -199 -167 -245 -227 -22 -29 -72 -114 -92 -157 -9
-20 -23 -51 -32 -70 -36 -78 -60 -207 -61 -323 0 -90 -1 -89 78 -69 26 7 51
12 55 13 13 0 107 13 127 18 11 2 83 6 159 9 77 3 143 7 148 10 4 3 8 1 8 -3
0 -5 27 -6 60 -3 33 3 60 3 60 0 0 -4 23 -4 50 0 28 4 50 4 50 0 0 -4 23 -4
50 0 28 4 50 4 50 0 0 -3 27 -3 60 0 33 3 60 3 60 0 0 -4 23 -4 50 0 28 4 50
4 50 0 0 -4 23 -4 50 0 28 4 50 4 50 0 0 -3 27 -3 60 0 33 3 60 3 60 0 0 -4
23 -4 50 0 28 4 50 4 50 0 0 -4 23 -4 50 0 28 4 50 4 50 0 0 -3 27 -3 60 0 33
3 60 2 60 -3 0 -4 4 -6 9 -2 10 6 80 7 186 2 l60 -2 0 50 c2 189 -92 424 -235
589 -137 158 -344 274 -556 311 -66 11 -267 18 -276 9z"/>
<path d="M4790 4486 c-3 -3 -36 -7 -74 -11 -37 -3 -87 -10 -109 -16 -23 -6
-49 -12 -57 -13 -58 -9 -196 -74 -285 -133 -33 -23 -90 -70 -128 -107 l-67
-66 -53 6 c-93 10 -278 19 -297 14 -16 -4 -120 -4 -120 0 0 3 -28 4 -62 2 -35
-1 -79 -2 -98 -2 -19 1 -46 0 -60 0 -14 -1 -29 -2 -35 -2 -48 2 -261 3 -265 2
-19 -4 -120 -4 -120 0 0 3 -28 4 -62 2 -35 -1 -79 -2 -98 -2 -19 1 -46 0 -60
0 -14 -1 -32 -2 -40 -1 -256 8 -455 -17 -650 -84 -101 -34 -285 -119 -308
-142 -7 -7 -19 -13 -27 -13 -7 0 -15 -3 -17 -7 -1 -5 -27 -25 -57 -45 -143
-98 -292 -247 -391 -391 -19 -29 -38 -53 -42 -55 -5 -2 -8 -10 -8 -17 0 -8 -6
-20 -13 -27 -39 -40 -150 -308 -187 -455 l-10 -41 -55 -4 c-30 -1 -55 1 -55 5
0 5 -4 6 -8 3 -25 -15 -338 -7 -393 11 -54 18 -113 70 -136 122 -22 49 -24
137 -5 186 35 92 143 160 247 157 20 -1 47 23 54 48 5 21 2 101 -5 111 -3 5 0
9 6 9 6 0 9 4 6 8 -3 5 -6 30 -7 57 -4 73 -23 87 -110 80 -246 -20 -452 -191
-513 -425 -13 -49 -15 -205 -4 -250 20 -79 60 -164 102 -218 63 -81 210 -183
284 -197 12 -2 26 -7 32 -10 5 -3 44 -8 87 -11 43 -2 83 -7 90 -9 7 -2 15 0
18 6 4 5 10 7 15 4 7 -4 32 -5 133 -4 9 0 33 0 52 0 19 0 42 0 50 0 75 0 85
-3 85 -24 1 -25 8 -123 13 -183 2 -23 7 -46 11 -53 4 -6 5 -11 3 -11 -3 0 0
-19 5 -42 5 -24 12 -54 14 -68 7 -35 62 -198 82 -240 9 -19 17 -37 17 -40 1
-5 7 -17 58 -110 35 -64 114 -183 148 -224 64 -74 161 -173 221 -223 l67 -57
1 -65 c0 -36 1 -74 1 -83 0 -10 0 -35 0 -55 0 -21 0 -49 -1 -63 -4 -109 -4
-140 0 -140 4 0 4 -107 -1 -120 -1 -3 -1 -8 -1 -11 1 -3 1 -48 1 -100 1 -238
3 -247 68 -296 l36 -28 378 0 c368 0 378 1 406 21 46 34 70 88 72 158 1 58 1
233 -1 245 0 3 0 8 1 11 5 14 5 120 0 120 -3 0 -3 17 0 38 6 36 8 37 54 42 26
3 47 3 47 0 0 -3 27 -3 60 0 33 3 60 3 60 -1 0 -4 8 -5 18 -3 26 7 222 10 222
3 0 -3 23 -3 50 1 28 4 50 2 50 -2 0 -5 4 -7 8 -4 5 3 39 5 78 5 38 1 85 1
104 2 19 1 41 1 48 0 22 -2 36 -2 87 -2 138 1 164 1 209 1 28 -1 53 -3 57 -6
4 -2 10 0 13 4 3 5 26 6 50 2 28 -4 49 -3 56 4 9 8 11 -1 10 -34 -1 -25 -1
-49 0 -55 1 -5 2 -14 1 -19 -2 -8 -1 -77 0 -136 1 -8 0 -58 0 -110 -2 -151 4
-186 34 -226 48 -63 56 -64 444 -64 253 0 358 3 378 12 55 24 112 101 99 134
-3 8 -1 16 5 19 5 4 7 11 3 16 -3 6 -5 54 -4 107 1 53 2 102 2 107 -1 21 -2
101 -1 118 0 9 -1 32 -1 50 0 17 1 60 2 95 2 34 1 62 -2 62 -4 0 -4 104 0 120
1 3 1 32 0 66 l-1 61 48 38 c58 48 174 163 228 227 34 41 45 47 78 48 20 0 54
0 75 1 20 1 43 1 50 0 22 -2 36 -2 87 -2 28 0 74 1 103 1 147 0 171 3 207 24
21 11 48 34 59 49 21 28 21 34 21 725 0 666 -1 698 -19 725 -34 51 -74 71
-144 73 -35 2 -66 5 -68 7 -2 2 -24 1 -49 -3 -25 -4 -47 -5 -50 -2 -2 3 -30 5
-61 6 -64 1 -54 -9 -125 126 -18 36 -39 71 -46 78 -6 6 -15 21 -18 32 -3 11
-10 20 -14 20 -3 0 -15 15 -26 33 -21 36 -52 72 -142 167 l-62 66 15 59 c9 33
17 67 19 75 2 8 31 125 65 260 96 382 90 351 74 357 -8 3 -26 3 -39 1 -14 -3
-25 -2 -25 2 0 3 -22 4 -50 0 -27 -4 -50 -4 -50 -1 0 4 -31 4 -70 1 -38 -3
-71 -1 -73 3 -1 5 -5 6 -7 3z m-398 -1624 c43 -17 80 -76 83 -130 4 -61 -14
-103 -59 -137 -42 -32 -114 -41 -162 -20 -68 28 -110 131 -83 199 37 89 127
125 221 88z"/>
</g>
</svg>
